<?xml version="1.0" encoding="utf-8"?>
<!-- Generator: Adobe Illustrator 22.1.0, SVG Export Plug-In . SVG Version: 6.00 Build 0)  -->
<svg version="1.1" id="Icon_Set" xmlns="http://www.w3.org/2000/svg" xmlns:xlink="http://www.w3.org/1999/xlink" x="0px" y="0px"
	 viewBox="0 0 512 512" style="enable-background:new 0 0 512 512;" xml:space="preserve">
<style type="text/css">
	.st0{fill:#F0C48A;}
	.st1{fill:#7BABF1;}
	.st2{fill:#4C4372;}
	.st3{fill:#A4CFF2;}
	.st4{fill:#FD919E;}
	.st5{fill:#E8677D;}
	.st6{fill:#D3E6F8;}
	.st7{fill:#FFFFFF;}
</style>
<g id="Communities_and_Networks">
	<g>
		<g>
			<circle class="st0" cx="256" cy="256" r="207"/>
		</g>
	</g>
	<g>
		<g>
			<g>
				<circle class="st4" cx="256" cy="241.019" r="137.74"/>
			</g>
			<g>
				<path class="st2" d="M256,190.481c-46.325,0-89.835-8.223-116.39-21.997c-1.526-0.792-2.64-2.201-3.058-3.869
					c-0.418-1.668-0.1-3.435,0.874-4.853c26.86-39.125,71.188-62.482,118.573-62.482s91.713,23.358,118.573,62.482
					c0.974,1.418,1.292,3.185,0.874,4.853c-0.418,1.668-1.531,3.077-3.058,3.869C345.835,182.258,302.325,190.481,256,190.481z
					 M151.464,160.849c25.285,11.104,63.623,17.632,104.536,17.632s79.251-6.528,104.536-17.632
					c-24.892-32.418-63.46-51.569-104.536-51.569S176.355,128.43,151.464,160.849z"/>
			</g>
			<g>
				<path class="st2" d="M256,384.759c-47.386,0-91.712-23.358-118.573-62.482c-0.974-1.418-1.292-3.185-0.874-4.853
					c0.418-1.668,1.531-3.077,3.058-3.869c26.554-13.774,70.064-21.998,116.39-21.998s89.836,8.224,116.39,21.998
					c1.526,0.792,2.64,2.201,3.058,3.869c0.418,1.668,0.1,3.435-0.874,4.853C347.712,361.401,303.386,384.759,256,384.759z
					 M151.464,321.189c24.892,32.419,63.46,51.57,104.536,51.57s79.645-19.151,104.536-51.57
					c-25.285-11.104-63.623-17.632-104.536-17.632S176.749,310.085,151.464,321.189z"/>
			</g>
			<g>
				<path class="st2" d="M256,384.759c-79.258,0-143.739-64.481-143.739-143.74S176.742,97.279,256,97.279
					s143.739,64.481,143.739,143.74S335.258,384.759,256,384.759z M256,109.279c-72.642,0-131.739,59.098-131.739,131.74
					S183.358,372.759,256,372.759s131.739-59.098,131.739-131.74S328.642,109.279,256,109.279z"/>
			</g>
			<g>
				<path class="st2" d="M256,384.759c-21.061,0-40.527-15.493-54.816-43.626c-13.632-26.842-21.14-62.396-21.14-100.114
					s7.508-73.272,21.14-100.114c14.288-28.133,33.756-43.626,54.816-43.626s40.528,15.493,54.816,43.626
					c13.632,26.841,21.14,62.396,21.14,100.114s-7.508,73.272-21.14,100.114C296.527,369.266,277.061,384.759,256,384.759z
					 M256,109.279c-16.312,0-31.979,13.162-44.117,37.06c-12.793,25.189-19.839,58.814-19.839,94.68
					c0,35.865,7.046,69.49,19.839,94.68c12.138,23.898,27.806,37.06,44.117,37.06s31.979-13.162,44.117-37.06
					c12.793-25.19,19.839-58.814,19.839-94.68c0-35.866-7.046-69.49-19.839-94.68C287.979,122.441,272.312,109.279,256,109.279z"/>
			</g>
			<g>
				<path class="st2" d="M393.739,247.019H118.261c-3.313,0-6-2.687-6-6s2.687-6,6-6h275.479c3.313,0,6,2.687,6,6
					S397.053,247.019,393.739,247.019z"/>
			</g>
			<g>
				<path class="st2" d="M256,384.759c-3.313,0-6-2.687-6-6V103.279c0-3.313,2.687-6,6-6s6,2.687,6,6v275.479
					C262,382.072,259.313,384.759,256,384.759z"/>
			</g>
		</g>
		<g>
			<g>
				<g>
					<path class="st1" d="M409.194,408.721H278.96v-38.963c0-13.427,10.884-24.311,24.311-24.311h81.612
						c13.427,0,24.311,10.884,24.311,24.311V408.721z"/>
				</g>
				<g>
					<path class="st2" d="M409.193,414.721H278.96c-3.313,0-6-2.687-6-6v-38.962c0-16.713,13.598-30.311,30.311-30.311h81.612
						c16.713,0,30.311,13.598,30.311,30.311v38.962C415.193,412.034,412.507,414.721,409.193,414.721z M284.96,402.721h118.233
						v-32.962c0-10.097-8.214-18.311-18.311-18.311h-81.612c-10.097,0-18.311,8.214-18.311,18.311V402.721z"/>
				</g>
				<g>
					<g>
						<path class="st2" d="M306.859,414.721c-3.313,0-6-2.687-6-6V381.23c0-3.313,2.687-6,6-6s6,2.687,6,6v27.491
							C312.859,412.034,310.173,414.721,306.859,414.721z"/>
					</g>
					<g>
						<path class="st2" d="M381.294,414.721c-3.313,0-6-2.687-6-6V381.23c0-3.313,2.687-6,6-6s6,2.687,6,6v27.491
							C387.294,412.034,384.607,414.721,381.294,414.721z"/>
					</g>
				</g>
				<g>
					<path class="st7" d="M344.077,361.869L344.077,361.869c-7.495,0-13.572-6.076-13.572-13.572v-30.419h27.143v30.419
						C357.648,355.793,351.572,361.869,344.077,361.869z"/>
				</g>
				<g>
					<path class="st2" d="M344.076,367.869c-10.792,0-19.571-8.78-19.571-19.572v-30.419c0-3.313,2.687-6,6-6h27.144
						c3.313,0,6,2.687,6,6v30.419C363.648,359.089,354.868,367.869,344.076,367.869z M336.505,323.878v24.419
						c0,4.175,3.396,7.572,7.571,7.572c4.176,0,7.572-3.396,7.572-7.572v-24.419H336.505z"/>
				</g>
				<g>
					<path class="st7" d="M344.077,334.793L344.077,334.793c-16.99,0-30.762-13.773-30.762-30.762v-16.514
						c0-16.99,13.773-30.762,30.762-30.762h0c16.99,0,30.762,13.773,30.762,30.762v16.514
						C374.839,321.02,361.066,334.793,344.077,334.793z"/>
				</g>
				<g>
					<path class="st2" d="M344.076,340.793c-20.271,0-36.762-16.492-36.762-36.762v-16.514c0-20.271,16.491-36.762,36.762-36.762
						c20.271,0,36.763,16.492,36.763,36.762v16.514C380.839,324.301,364.348,340.793,344.076,340.793z M344.076,262.754
						c-13.653,0-24.762,11.108-24.762,24.762v16.514c0,13.654,11.108,24.762,24.762,24.762c13.654,0,24.763-11.108,24.763-24.762
						v-16.514C368.839,273.863,357.73,262.754,344.076,262.754z"/>
				</g>
			</g>
			<g>
				<g>
					<path class="st1" d="M233.04,408.721H102.806v-38.963c0-13.427,10.884-24.311,24.311-24.311h81.612
						c13.427,0,24.311,10.884,24.311,24.311V408.721z"/>
				</g>
				<g>
					<path class="st2" d="M233.04,414.721H102.807c-3.313,0-6-2.687-6-6v-38.962c0-16.713,13.598-30.311,30.311-30.311h81.612
						c16.713,0,30.311,13.598,30.311,30.311v38.962C239.04,412.034,236.354,414.721,233.04,414.721z M108.807,402.721H227.04
						v-32.962c0-10.097-8.214-18.311-18.311-18.311h-81.612c-10.097,0-18.311,8.214-18.311,18.311V402.721z"/>
				</g>
				<g>
					<g>
						<path class="st2" d="M130.706,414.721c-3.313,0-6-2.687-6-6V381.23c0-3.313,2.687-6,6-6s6,2.687,6,6v27.491
							C136.706,412.034,134.02,414.721,130.706,414.721z"/>
					</g>
					<g>
						<path class="st2" d="M205.141,414.721c-3.313,0-6-2.687-6-6V381.23c0-3.313,2.687-6,6-6s6,2.687,6,6v27.491
							C211.141,412.034,208.454,414.721,205.141,414.721z"/>
					</g>
				</g>
				<g>
					<path class="st7" d="M167.923,361.869L167.923,361.869c-7.495,0-13.572-6.076-13.572-13.572v-30.419h27.143v30.419
						C181.495,355.793,175.419,361.869,167.923,361.869z"/>
				</g>
				<g>
					<path class="st2" d="M167.924,367.869c-10.792,0-19.572-8.78-19.572-19.572v-30.419c0-3.313,2.687-6,6-6h27.144
						c3.313,0,6,2.687,6,6v30.419C187.495,359.089,178.716,367.869,167.924,367.869z M160.352,323.878v24.419
						c0,4.175,3.396,7.572,7.572,7.572c4.175,0,7.571-3.396,7.571-7.572v-24.419H160.352z"/>
				</g>
				<g>
					<path class="st7" d="M167.923,334.793L167.923,334.793c-16.99,0-30.762-13.773-30.762-30.762v-16.514
						c0-16.99,13.773-30.762,30.762-30.762h0c16.99,0,30.762,13.773,30.762,30.762v16.514
						C198.686,321.02,184.913,334.793,167.923,334.793z"/>
				</g>
				<g>
					<path class="st2" d="M167.924,340.793c-20.271,0-36.763-16.492-36.763-36.762v-16.514c0-20.271,16.491-36.762,36.763-36.762
						c20.271,0,36.762,16.492,36.762,36.762v16.514C204.686,324.301,188.194,340.793,167.924,340.793z M167.924,262.754
						c-13.654,0-24.763,11.108-24.763,24.762v16.514c0,13.654,11.108,24.762,24.763,24.762c13.653,0,24.762-11.108,24.762-24.762
						v-16.514C192.686,273.863,181.577,262.754,167.924,262.754z"/>
				</g>
			</g>
			<g>
				<g>
					<path class="st6" d="M330.668,408.721H181.219V364.01c0-15.408,12.49-27.898,27.898-27.898h93.653
						c15.408,0,27.898,12.49,27.898,27.898V408.721z"/>
				</g>
				<g>
					<path class="st2" d="M330.668,414.721H181.22c-3.313,0-6-2.687-6-6V364.01c0-18.691,15.206-33.898,33.897-33.898h93.653
						c18.691,0,33.897,15.207,33.897,33.898v44.711C336.668,412.034,333.981,414.721,330.668,414.721z M187.22,402.721h137.448
						V364.01c0-12.075-9.823-21.898-21.897-21.898h-93.653c-12.074,0-21.897,9.823-21.897,21.898V402.721z"/>
				</g>
				<g>
					<g>
						<path class="st2" d="M213.235,414.721c-3.313,0-6-2.687-6-6v-31.546c0-3.313,2.687-6,6-6s6,2.687,6,6v31.546
							C219.235,412.034,216.549,414.721,213.235,414.721z"/>
					</g>
					<g>
						<path class="st2" d="M298.652,414.721c-3.313,0-6-2.687-6-6v-31.546c0-3.313,2.687-6,6-6s6,2.687,6,6v31.546
							C304.652,412.034,301.966,414.721,298.652,414.721z"/>
					</g>
				</g>
				<g>
					<path class="st7" d="M255.944,354.957L255.944,354.957c-8.601,0-15.574-6.973-15.574-15.574v-34.907h31.148v34.907
						C271.518,347.984,264.545,354.957,255.944,354.957z"/>
				</g>
				<g>
					<path class="st2" d="M255.943,360.957c-11.896,0-21.574-9.678-21.574-21.574v-34.908c0-3.313,2.687-6,6-6h31.148
						c3.313,0,6,2.687,6,6v34.908C277.518,351.279,267.84,360.957,255.943,360.957z M246.369,310.475v28.908
						c0,5.279,4.295,9.574,9.574,9.574s9.574-4.295,9.574-9.574v-28.908H246.369z"/>
				</g>
				<g>
					<path class="st7" d="M255.944,323.886L255.944,323.886c-19.496,0-35.301-15.805-35.301-35.301v-18.951
						c0-19.496,15.805-35.301,35.301-35.301h0c19.496,0,35.301,15.805,35.301,35.301v18.951
						C291.245,308.081,275.44,323.886,255.944,323.886z"/>
				</g>
				<g>
					<path class="st2" d="M255.943,329.886c-22.773,0-41.301-18.527-41.301-41.301v-18.951c0-22.773,18.527-41.301,41.301-41.301
						s41.302,18.528,41.302,41.301v18.951C297.245,311.358,278.717,329.886,255.943,329.886z M255.943,240.333
						c-16.156,0-29.301,13.145-29.301,29.301v18.951c0,16.156,13.145,29.301,29.301,29.301c16.157,0,29.302-13.145,29.302-29.301
						v-18.951C285.245,253.478,272.101,240.333,255.943,240.333z"/>
				</g>
			</g>
		</g>
		<g>
			<polygon class="st2" points="181.219,331.778 181.219,354.957 204.764,334.793 198.686,320.008 			"/>
		</g>
		<g>
			<polygon class="st2" points="330.564,331.778 330.564,354.957 307.02,334.793 313.098,320.008 			"/>
		</g>
	</g>
</g>
</svg>
