<svg width="1441" height="516" xmlns="http://www.w3.org/2000/svg" xmlns:xlink="http://www.w3.org/1999/xlink"><defs><path id="a" d="M0 0h1441v571H0z"/></defs><g fill="none" fill-rule="evenodd"><mask id="b" fill="#fff"><use xlink:href="#a"/></mask><g mask="url(#b)"><path fill="#1FAB55" opacity=".3" d="M177.439 16.21l-11.616-27.997-8.437 3.56 11.617 27.995z"/><path fill="#567BD6" opacity=".3" d="M999.764 123.25l-8.091 4.971 16.4 26.328 8.087-4.972z"/><path fill="#567BD6" opacity=".2" d="M89.764 149.25l-8.091 4.971 16.4 26.328 8.087-4.972z"/><path fill="#6688DA" opacity=".4" d="M739 26.925l2.068 9.268L771.3 29.26l-2.068-9.267z"/><path fill="#F2BB4E" d="M-5 67.931l2.068 9.269L27.3 70.267 25.231 61zm153.593 176.045l-6.407 7.01 23.02 20.787 6.404-7.01zm1170 215l-6.407 7.01 23.02 20.787 6.404-7.01zm-110-408l-6.407 7.01 23.02 20.787 6.404-7.01z"/><path fill="#1DA853" d="M220 156.931l2.068 9.269 30.231-6.933-2.068-9.267z"/><path fill="#5276CE" d="M69 361.925l2.068 9.268 30.231-6.933-2.068-9.267z"/><path fill="#5276CE" opacity=".8" d="M344 80.925l2.068 9.268L376.3 83.26l-2.068-9.267z"/><path fill="#567BD6" opacity=".5" d="M411 441.925l2.068 9.268 30.231-6.933-2.068-9.267z"/><path fill="#2B4EA5" d="M370.71 351.108l-22.045-22.115L342 335.68l22.045 22.114z"/><path fill="#34B465" opacity=".2" d="M314 260.004l-28.835-7.01L283 261.53l28.837 7.01z"/><path fill="#5276CE" opacity=".5" d="M1447 461.587l-35.346-8.594L1409 463.46l35.348 8.594z"/><path fill="#F1BA4D" d="M1420 285.195l-21.394-5.202-1.606 6.335 21.395 5.201z"/><path fill="#5276CE" d="M1402 136.962l-39.067-9.498L1360 139.03l39.07 9.498z"/><path fill="#567BD6" opacity=".3" d="M429.764 179.25l-8.092 4.97 16.394 26.308 8.087-4.97z"/><path fill="#567BD6" opacity=".5" d="M971.764 484.25l-8.092 4.97 16.394 26.308 8.087-4.97z"/><path fill="#F2BB4E" d="M204.539 467.925l2.066 9.268 30.21-6.933-2.067-9.267z"/><path fill="#2B4EA5" opacity=".3" d="M239.229 73.108l-22.03-22.115-6.66 6.686 22.03 22.114z"/></g></g></svg>